<svg xmlns="http://www.w3.org/2000/svg" viewBox="0 0 162.1 162.1"><defs><style>.cls-1{isolation:isolate;}.cls-2{fill:#7e0cf5;}.cls-3{opacity:0.5;mix-blend-mode:multiply;}.cls-4{fill:#231f20;}.cls-5{fill:#fff;}</style></defs><title>CleverCards Buttons</title><g class="cls-1"><g id="Layer_2" data-name="Layer 2"><rect id="Rectángulo_1550" data-name="Rectángulo 1550" class="cls-2" width="162.1" height="162.1" rx="41.07"/><g class="cls-3"><path class="cls-4" d="M121,155.59H41.07A34.61,34.61,0,0,1,6.5,121V41.07A34.61,34.61,0,0,1,41.07,6.5H121a34.61,34.61,0,0,1,34.57,34.57V121A34.61,34.61,0,0,1,121,155.59ZM41.07,10.5A30.61,30.61,0,0,0,10.5,41.07V121a30.61,30.61,0,0,0,30.57,30.57H121A30.6,30.6,0,0,0,151.59,121V41.07A30.61,30.61,0,0,0,121,10.5Z"/></g><path class="cls-5" d="M100.93,94.81,99.5,94.2l-8.29,8.29c-2.71-1-9.34-4-17.39-12.1S62.71,75.7,61.71,73L70,64.71l-.6-1.44A70.14,70.14,0,0,0,55.81,42.89l-.94-1-1.31.34a57.37,57.37,0,0,0-18.74,8.52l-1.08.74.07,1.3C34,57,36.41,79.2,60.71,103.5s46.47,26.66,50.67,26.89l1.3.07.74-1.08a57,57,0,0,0,8.52-18.74l.34-1.31-1-.94A70.09,70.09,0,0,0,100.93,94.81Z"/><path class="cls-5" d="M117.57,45H92.35a1.69,1.69,0,0,0-1.2,2.89l6,6a1.69,1.69,0,0,1,0,2.4L78.26,75.17a.84.84,0,0,0,0,1.18l1.21,1.2h0l8.14,8.13h0l.27.27a.83.83,0,0,0,1.17,0L108,67a1.69,1.69,0,0,1,2.39,0l6,6a1.69,1.69,0,0,0,2.89-1.2V46.73A1.7,1.7,0,0,0,117.57,45Z"/></g></g></svg>