<svg xmlns="http://www.w3.org/2000/svg" viewBox="0 0 162.1 162.1"><defs><style>.cls-1{isolation:isolate;}.cls-2{fill:#403090;}.cls-3{opacity:0.5;mix-blend-mode:multiply;}.cls-4{fill:#231f20;}.cls-5{fill:#fff;}</style></defs><title>CleverCards Buttons</title><g class="cls-1"><g id="Layer_2" data-name="Layer 2"><rect id="Rectángulo_1550" data-name="Rectángulo 1550" class="cls-2" width="162.1" height="162.1" rx="41.07"/><g class="cls-3"><path class="cls-4" d="M121,155.59H41.07A34.61,34.61,0,0,1,6.5,121V41.07A34.61,34.61,0,0,1,41.07,6.5H121a34.61,34.61,0,0,1,34.57,34.57V121A34.61,34.61,0,0,1,121,155.59ZM41.07,10.5A30.61,30.61,0,0,0,10.5,41.07V121a30.61,30.61,0,0,0,30.57,30.57H121A30.6,30.6,0,0,0,151.59,121V41.07A30.61,30.61,0,0,0,121,10.5Z"/></g><path class="cls-5" d="M114.2,108.5a38.66,38.66,0,0,0-10.7-6A56.34,56.34,0,0,0,108,82.26H125A41.91,41.91,0,0,1,114.2,108.5ZM41,82.26H58.69A56.67,56.67,0,0,0,63,102.32a39.13,39.13,0,0,0-11.27,6.16A41.92,41.92,0,0,1,41,82.26Zm10.79-30.1A39.52,39.52,0,0,0,63.1,58.35a56.56,56.56,0,0,0-4.41,20H41A41.92,41.92,0,0,1,51.77,52.16ZM84.94,99V82.26h19.12a52.51,52.51,0,0,1-4.25,19A59.67,59.67,0,0,0,84.94,99Zm13.16,5.84a49.56,49.56,0,0,1-13.16,15.88V102.88A56.43,56.43,0,0,1,98.1,104.84ZM84.94,78.38V61.64a59.65,59.65,0,0,0,14.8-2.29,52.46,52.46,0,0,1,4.31,19Zm0-20.62V40.09A49.61,49.61,0,0,1,98,55.82,56.36,56.36,0,0,1,84.94,57.76Zm4.44-19a41.91,41.91,0,0,1,22.06,10.63,35.54,35.54,0,0,1-9.65,5.24A53.65,53.65,0,0,0,89.38,38.74ZM66.75,101.12a52.52,52.52,0,0,1-4.17-18.86H81.05V99A60.3,60.3,0,0,0,66.75,101.12Zm14.3,1.76v17.33a49.68,49.68,0,0,1-12.6-15.53A56.47,56.47,0,0,1,81.05,102.88ZM62.58,78.38a52.47,52.47,0,0,1,4.23-18.84,60.39,60.39,0,0,0,14.24,2.11V78.38Zm6-22.4A49.65,49.65,0,0,1,81.05,40.6V57.76A56.43,56.43,0,0,1,68.53,56Zm-3.79-1.16a36.31,36.31,0,0,1-10.22-5.43A41.93,41.93,0,0,1,77.38,38.64,53.64,53.64,0,0,0,64.74,54.82Zm-.08,51A53.72,53.72,0,0,0,77.14,122a41.9,41.9,0,0,1-22.62-10.72A36,36,0,0,1,64.66,105.85Zm37.21.21a35.83,35.83,0,0,1,9.57,5.21,41.91,41.91,0,0,1-21.8,10.59A54,54,0,0,0,101.87,106.06Zm6.07-27.68a56.43,56.43,0,0,0-4.49-20.25,39,39,0,0,0,10.75-6A41.91,41.91,0,0,1,125,78.38Z"/></g></g></svg>