<svg xmlns="http://www.w3.org/2000/svg" viewBox="0 0 162.1 162.1"><defs><style>.cls-1{isolation:isolate;}.cls-2{fill:#0e76a8;}.cls-3{opacity:0.5;mix-blend-mode:multiply;}.cls-4{fill:#231f20;}.cls-5{fill:#fff;}</style></defs><title>CleverCards Buttons</title><g class="cls-1"><g id="Layer_2" data-name="Layer 2"><rect id="Rectángulo_1550" data-name="Rectángulo 1550" class="cls-2" width="162.1" height="162.1" rx="41.07"/><g class="cls-3"><path class="cls-4" d="M121,155.59H41.07A34.61,34.61,0,0,1,6.5,121V41.07A34.61,34.61,0,0,1,41.07,6.5H121a34.61,34.61,0,0,1,34.57,34.57V121A34.61,34.61,0,0,1,121,155.59ZM41.07,10.5A30.61,30.61,0,0,0,10.5,41.07V121a30.61,30.61,0,0,0,30.57,30.57H121A30.6,30.6,0,0,0,151.59,121V41.07A30.61,30.61,0,0,0,121,10.5Z"/></g><path class="cls-5" d="M87.9,71.83a3.43,3.43,0,0,1-.06-.34c0-.82,0-1.65,0-2.47,0-1.36,0-2.71,0-4.07a3.18,3.18,0,0,0-.06-.62.69.69,0,0,0-.6-.62,6.51,6.51,0,0,0-.88-.06l-9.1,0c-2.1,0-4.2,0-6.29,0a3.6,3.6,0,0,0-.66.07.78.78,0,0,0-.65.63,4.45,4.45,0,0,0-.08.81q0,7.6,0,15.2,0,14,0,27.94v14.94a3.94,3.94,0,0,0,.07.77.75.75,0,0,0,.66.66,4.3,4.3,0,0,0,.88.07l5.47-.06c1.83,0,3.65,0,5.47,0l5,0a2.82,2.82,0,0,0,.65-.08.82.82,0,0,0,.67-.66,3.65,3.65,0,0,0,.08-.74c0-3.09,0-6.19,0-9.28q0-8.24,0-16.46c0-1.63,0-3.26.06-4.89A23.72,23.72,0,0,1,88.92,89a16.8,16.8,0,0,1,1.29-4.5,9.23,9.23,0,0,1,2.53-3.37A9.9,9.9,0,0,1,98.8,79a24.48,24.48,0,0,1,2.84.07,8,8,0,0,1,3.14.91,7.81,7.81,0,0,1,3.47,3.9,18.74,18.74,0,0,1,1.39,6.81c.06,1.36,0,2.73,0,4.1q0,8.52,0,17c0,3.82,0,7.65,0,11.47a3.94,3.94,0,0,0,.08.77.77.77,0,0,0,.66.66,2.16,2.16,0,0,0,.51.07h.92l8.14,0,7.51,0a3.7,3.7,0,0,0,.66-.07.82.82,0,0,0,.65-.68,6,6,0,0,0,.07-.85c0-3.52,0-7,0-10.58,0-5.57,0-11.14,0-16.72,0-3,0-6.06-.11-9.09-.06-.94-.08-1.88-.18-2.81-.16-1.39-.34-2.79-.58-4.17A27.81,27.81,0,0,0,126,73a17.17,17.17,0,0,0-5.4-6.88,18.2,18.2,0,0,0-6.38-3,30.52,30.52,0,0,0-6.45-.94,25.81,25.81,0,0,0-6.08.37,21,21,0,0,0-6.5,2.36,18.43,18.43,0,0,0-5.38,4.52c-.54.68-1,1.42-1.53,2.13C88.17,71.67,88.14,71.85,87.9,71.83ZM57.82,94.16v-16q0-6.64,0-13.28a2.51,2.51,0,0,0-.07-.55.7.7,0,0,0-.57-.56,3.34,3.34,0,0,0-.7-.08l-8.47,0-7.81,0a5.12,5.12,0,0,0-.77.07.81.81,0,0,0-.67.74,6,6,0,0,0-.06.85c0,2.26,0,4.53,0,6.8q0,12.6,0,25.2,0,10.2,0,20.42c0,1.84,0,3.67,0,5.51a4.62,4.62,0,0,0,.06.74.79.79,0,0,0,.66.7,4.91,4.91,0,0,0,.66.06l5.88,0,10.51,0a3.34,3.34,0,0,0,.7-.08.7.7,0,0,0,.57-.56,4.45,4.45,0,0,0,.08-.81q0-7,0-14Zm1.57-49.74a11.08,11.08,0,1,0-11,11.08A11.08,11.08,0,0,0,59.39,44.42Z"/><path class="cls-5" d="M87.9,71.83c.24,0,.27-.16.35-.27.51-.71,1-1.45,1.53-2.13a18.43,18.43,0,0,1,5.38-4.52,21,21,0,0,1,6.5-2.36,25.81,25.81,0,0,1,6.08-.37,30.52,30.52,0,0,1,6.45.94,18.2,18.2,0,0,1,6.38,3A17.17,17.17,0,0,1,126,73a27.81,27.81,0,0,1,2,6.74c.24,1.38.42,2.78.58,4.17.1.93.12,1.87.18,2.81.16,3,.11,6.06.11,9.09,0,5.58,0,11.15,0,16.72,0,3.53,0,7.06,0,10.58a6,6,0,0,1-.07.85.82.82,0,0,1-.65.68,3.7,3.7,0,0,1-.66.07l-7.51,0-8.14,0h-.92a2.16,2.16,0,0,1-.51-.07.77.77,0,0,1-.66-.66,3.94,3.94,0,0,1-.08-.77c0-3.82,0-7.65,0-11.47q0-8.51,0-17c0-1.37,0-2.74,0-4.1a18.74,18.74,0,0,0-1.39-6.81,7.81,7.81,0,0,0-3.47-3.9,8,8,0,0,0-3.14-.91A24.48,24.48,0,0,0,98.8,79a9.9,9.9,0,0,0-6.06,2.14,9.23,9.23,0,0,0-2.53,3.37A16.8,16.8,0,0,0,88.92,89a23.72,23.72,0,0,0-.32,3.67c0,1.63-.06,3.26-.06,4.89q0,8.22,0,16.46c0,3.09,0,6.19,0,9.28a3.65,3.65,0,0,1-.08.74.82.82,0,0,1-.67.66,2.82,2.82,0,0,1-.65.08l-5,0c-1.82,0-3.64,0-5.47,0l-5.47.06a4.3,4.3,0,0,1-.88-.07.75.75,0,0,1-.66-.66,3.94,3.94,0,0,1-.07-.77V108.29q0-14,0-27.94,0-7.6,0-15.2a4.45,4.45,0,0,1,.08-.81.78.78,0,0,1,.65-.63,3.6,3.6,0,0,1,.66-.07c2.09,0,4.19,0,6.29,0l9.1,0a6.51,6.51,0,0,1,.88.06.69.69,0,0,1,.6.62,3.18,3.18,0,0,1,.06.62c0,1.36,0,2.71,0,4.07,0,.82,0,1.65,0,2.47A3.43,3.43,0,0,0,87.9,71.83Z"/><path class="cls-5" d="M57.82,94.16V109.3q0,7,0,14a4.45,4.45,0,0,1-.08.81.7.7,0,0,1-.57.56,3.34,3.34,0,0,1-.7.08l-10.51,0-5.88,0a4.91,4.91,0,0,1-.66-.06.79.79,0,0,1-.66-.7,4.62,4.62,0,0,1-.06-.74c0-1.84,0-3.67,0-5.51q0-10.22,0-20.42,0-12.6,0-25.2c0-2.27,0-4.54,0-6.8a6,6,0,0,1,.06-.85.81.81,0,0,1,.67-.74,5.12,5.12,0,0,1,.77-.07l7.81,0,8.47,0a3.34,3.34,0,0,1,.7.08.7.7,0,0,1,.57.56,2.51,2.51,0,0,1,.07.55q0,6.63,0,13.28v16Z"/><path class="cls-5" d="M59.39,44.42A11.08,11.08,0,1,1,48.52,33.36,11.14,11.14,0,0,1,59.39,44.42Z"/></g></g></svg>