<svg xmlns="http://www.w3.org/2000/svg" viewBox="0 0 162.1 162.1"><defs><style>.cls-1{isolation:isolate;}.cls-2{fill:#10ddc2;}.cls-3{opacity:0.5;mix-blend-mode:multiply;}.cls-4{fill:#231f20;}.cls-5{fill:#fff;}</style></defs><title>CleverCards Buttons</title><g class="cls-1"><g id="Layer_2" data-name="Layer 2"><rect id="Rectángulo_1550" data-name="Rectángulo 1550" class="cls-2" width="162.1" height="162.1" rx="41.07"/><g class="cls-3"><path class="cls-4" d="M121,155.59H41.07A34.61,34.61,0,0,1,6.5,121V41.07A34.61,34.61,0,0,1,41.07,6.5H121a34.61,34.61,0,0,1,34.57,34.57V121A34.61,34.61,0,0,1,121,155.59ZM41.07,10.5A30.61,30.61,0,0,0,10.5,41.07V121a30.61,30.61,0,0,0,30.57,30.57H121A30.6,30.6,0,0,0,151.59,121V41.07A30.61,30.61,0,0,0,121,10.5Z"/></g><path class="cls-5" d="M71,91.66,81.62,83a2.25,2.25,0,0,1,2.85,0l10.63,8.7,33.15-25.12-44-32.28a2,2,0,0,0-2.3,0L37.85,66.53Z"/><polygon class="cls-5" points="98.68 94.59 129.38 119.73 129.38 71.32 98.68 94.59"/><polygon class="cls-5" points="36.71 71.32 36.71 119.73 67.42 94.59 36.71 71.32"/><path class="cls-5" d="M83.05,87.6l-45,36.83a2,2,0,0,0,.6.1h88.78a1.92,1.92,0,0,0,.59-.1Z"/></g></g></svg>