<svg xmlns="http://www.w3.org/2000/svg" viewBox="0 0 162.1 162.1"><defs><style>.cls-1{isolation:isolate;}.cls-2{fill:#00a859;}.cls-3{opacity:0.5;mix-blend-mode:multiply;}.cls-4{fill:#231f20;}.cls-5{fill:#fff;}</style></defs><title>CleverCards Buttons</title><g class="cls-1"><g id="Layer_2" data-name="Layer 2"><rect id="Rectángulo_1550" data-name="Rectángulo 1550" class="cls-2" width="162.1" height="162.1" rx="41.07"/><g class="cls-3"><path class="cls-4" d="M121,155.59H41.07A34.61,34.61,0,0,1,6.5,121V41.07A34.61,34.61,0,0,1,41.07,6.5H121a34.61,34.61,0,0,1,34.57,34.57V121A34.61,34.61,0,0,1,121,155.59ZM41.07,10.5A30.61,30.61,0,0,0,10.5,41.07V121a30.61,30.61,0,0,0,30.57,30.57H121A30.6,30.6,0,0,0,151.59,121V41.07A30.61,30.61,0,0,0,121,10.5Z"/></g><path class="cls-5" d="M34.44,128.89c.28-.9.54-1.73.81-2.55q3.64-11,7.27-22a1,1,0,0,0-.1-.72,45.15,45.15,0,0,1-5.23-13.53,58.44,58.44,0,0,1-1-6.72A44.87,44.87,0,0,1,36.15,77a46.73,46.73,0,0,1,27-39.7,40.88,40.88,0,0,1,13.25-3.71A54.12,54.12,0,0,1,83,33.22,44,44,0,0,1,99.29,36.7a46.56,46.56,0,0,1,27.42,33.55,47,47,0,0,1,.9,7.48,46.45,46.45,0,0,1-6.83,26.73A45.63,45.63,0,0,1,105,120.15a44.91,44.91,0,0,1-15.22,5.66A45.57,45.57,0,0,1,79,126.4a44.34,44.34,0,0,1-16.35-4.22c-.84-.4-1.67-.83-2.49-1.27a1.07,1.07,0,0,0-.92-.08l-12.3,4L34.79,128.8Zm11.71-11.75.68-.19c4.49-1.47,9-2.92,13.47-4.4a1.08,1.08,0,0,1,1,.13,37.54,37.54,0,0,0,18.8,6.09,34.73,34.73,0,0,0,9.21-.73,37.56,37.56,0,0,0,23.4-15.27A38.46,38.46,0,0,0,120,77.32a38,38,0,0,0-2-10.24,38.53,38.53,0,0,0-9.3-14.93A37.5,37.5,0,0,0,85,41a35.43,35.43,0,0,0-12,.93A37.83,37.83,0,0,0,49.93,58.49a38.52,38.52,0,0,0-6,26.24,38,38,0,0,0,6.7,17.54.86.86,0,0,1,.12.86q-2.25,6.72-4.46,13.45C46.24,116.73,46.21,116.88,46.15,117.14Z"/><path class="cls-5" d="M105.66,92.69a14,14,0,0,1-1.2,5.2,3.92,3.92,0,0,1-.56.87,12.93,12.93,0,0,1-6.85,4.06,11.82,11.82,0,0,1-7.31-.59c-2.62-1-5.26-2-7.82-3.22a35,35,0,0,1-10.31-7.59,58,58,0,0,1-7.7-9.86,36.88,36.88,0,0,1-3.7-6.93,17.16,17.16,0,0,1-1.21-6,13.57,13.57,0,0,1,4.85-10.53,4,4,0,0,1,3.14-1,20.75,20.75,0,0,0,2.09.13,1.83,1.83,0,0,1,1.86,1.17c.33.73.61,1.47.89,2.21,1,2.61,1.92,5.24,2.89,7.85a2.34,2.34,0,0,1-.13,2,16.42,16.42,0,0,1-3.08,3.89c-.93,1-1,1.49-.39,2.68A31.92,31.92,0,0,0,86,91.38l.79.38a1.61,1.61,0,0,0,2.2-.43c1.32-1.49,2.61-3,3.89-4.53.65-.78,1.09-1,2-.65a18.64,18.64,0,0,1,2.44,1.14c2.4,1.28,4.79,2.61,7.19,3.9C105.31,91.58,105.78,92.1,105.66,92.69Z"/></g></g></svg>